<?xml version="1.0" encoding="UTF-8" standalone="no"?>
<svg
   xmlns:dc="http://purl.org/dc/elements/1.1/"
   xmlns:cc="http://creativecommons.org/ns#"
   xmlns:rdf="http://www.w3.org/1999/02/22-rdf-syntax-ns#"
   xmlns:svg="http://www.w3.org/2000/svg"
   xmlns="http://www.w3.org/2000/svg"
   xmlns:sodipodi="http://sodipodi.sourceforge.net/DTD/sodipodi-0.dtd"
   xmlns:inkscape="http://www.inkscape.org/namespaces/inkscape"
   width="64.029167mm"
   height="23.108707mm"
   viewBox="0 0 64.029167 23.108707"
   version="1.1"
   id="svg686"
   inkscape:version="1.0.2 (e86c8708, 2021-01-15)"
   sodipodi:docname="sciencemesh.svg">
  <defs
     id="defs680" />
  <sodipodi:namedview
     id="base"
     pagecolor="#ffffff"
     bordercolor="#666666"
     borderopacity="1.0"
     inkscape:pageopacity="0.0"
     inkscape:pageshadow="2"
     inkscape:zoom="0.35"
     inkscape:cx="138.14287"
     inkscape:cy="517.9557"
     inkscape:document-units="mm"
     inkscape:current-layer="layer1"
     inkscape:document-rotation="0"
     showgrid="false"
     fit-margin-top="0"
     fit-margin-left="0"
     fit-margin-right="0"
     fit-margin-bottom="0"
     inkscape:window-width="1252"
     inkscape:window-height="943"
     inkscape:window-x="0"
     inkscape:window-y="503"
     inkscape:window-maximized="0" />
  <metadata
     id="metadata683">
    <rdf:RDF>
      <cc:Work
         rdf:about="">
        <dc:format>image/svg+xml</dc:format>
        <dc:type
           rdf:resource="http://purl.org/dc/dcmitype/StillImage" />
        <dc:title></dc:title>
      </cc:Work>
    </rdf:RDF>
  </metadata>
  <g
     inkscape:label="Layer 1"
     inkscape:groupmode="layer"
     id="layer1"
     transform="translate(-69.283032,-11.124221)">
    <g
       id="Layer_4"
       data-name="Layer 4"
       transform="matrix(0.26458333,0,0,0.26458333,66.518136,9.1160338)">
      <path
         class="cls-1"
         d="m 60.64,77.32 -10.77,10.61 13.41,7 10.78,-10.65 z"
         id="path467" />
      <path
         class="cls-1"
         d="M 52.34,73 49.87,87.93 60.64,77.32 63.12,62.4 Z"
         id="path469" />
      <path
         class="cls-1"
         d="M 52.34,73 63.12,62.4 56.35,48.88 45.58,59.49 Z"
         id="path471" />
      <path
         class="cls-1"
         d="m 76.53,69.37 -13.41,-7 -2.48,14.95 13.42,7 z"
         id="path473" />
      <path
         class="cls-1"
         d="m 78.07,60.15 13.41,7 -6.76,-13.55 -13.42,-7 z"
         id="path475" />
      <path
         class="cls-1"
         d="M 95.49,43 84.72,53.6 91.48,67.12 102.25,56.51 Z"
         id="path477" />
      <path
         class="cls-1"
         d="M 78.07,60.15 71.3,46.63 56.35,48.88 63.12,62.4 Z"
         id="path479" />
      <path
         class="cls-1"
         d="M 82.08,36 71.3,46.63 84.72,53.63 95.49,43 Z"
         id="path481" />
      <path
         class="cls-2"
         d="m 63.12,62.4 13.41,7 15,-2.25 -13.41,-7 z"
         id="path483" />
      <path
         class="cls-1"
         d="M 28.15,76.66 34.92,90.18 49.87,87.93 43.1,74.4 Z"
         id="path485" />
      <path
         class="cls-1"
         d="m 14.74,69.69 6.76,13.52 13.42,7 -6.77,-13.55 z"
         id="path487" />
      <path
         class="cls-2"
         d="M 45.58,59.49 43.1,74.4 49.87,87.93 52.34,73 Z"
         id="path489" />
      <path
         class="cls-1"
         d="m 28.15,76.66 15,-2.26 2.48,-14.91 -15,2.25 z"
         id="path491" />
      <path
         class="cls-3"
         d="m 30.63,61.74 -13.41,-7 -2.48,14.95 13.41,7 z"
         id="path493" />
      <path
         class="cls-1"
         d="m 32.16,52.53 -14.94,2.25 13.41,7 15,-2.25 z"
         id="path495" />
      <path
         class="cls-1"
         d="m 32.16,52.53 13.42,7 10.77,-10.65 -13.41,-7 z"
         id="path497" />
      <path
         class="cls-1"
         d="M 58.83,34 52.07,20.45 38.65,13.45 45.41,27 Z"
         id="path499" />
      <path
         class="cls-2"
         d="m 42.94,41.92 13.41,7 L 58.83,34 45.41,27 Z"
         id="path501" />
      <path
         class="cls-1"
         d="M 62.84,9.84 52.07,20.45 58.83,34 69.6,23.36 Z"
         id="path503" />
      <path
         class="cls-1"
         d="M 71.3,46.63 82.08,36 84.55,21.09 73.78,31.72 Z"
         id="path505" />
      <path
         class="cls-1"
         d="M 58.83,34 56.35,48.88 71.3,46.63 73.78,31.72 Z"
         id="path507" />
      <path
         class="cls-3"
         d="m 69.6,23.36 15,-2.25 -6.81,-13.52 -15,2.25 z"
         id="path509" />
      <path
         class="cls-1"
         d="M 73.78,31.72 84.55,21.11 69.55,23.36 58.83,34 Z"
         id="path511" />
      <path
         class="cls-2"
         d="M 36.17,28.39 38.65,13.48 23.7,15.73 21.23,30.65 Z"
         id="path513" />
      <path
         class="cls-1"
         d="M 45.41,27 38.65,13.48 36.17,28.39 42.94,41.92 Z"
         id="path515" />
      <path
         class="cls-1"
         d="M 28,44.17 43,41.92 36.17,28.39 21.23,30.65 Z"
         id="path517" />
      <path
         class="cls-1"
         d="M 21.23,30.65 10.45,41.25 17.22,54.78 28,44.17 Z"
         id="path519" />
      <path
         class="cls-1"
         d="M 42.94,41.92 28,44.17 17.22,54.78 32.16,52.53 Z"
         id="path521" />
      <path
         class="cls-4"
         d="m 115.66,47.25 3.44,-3.33 a 8.8,8.8 0 0 0 6.9,3.33 c 3.13,0 4.76,-1.51 4.76,-3.79 0,-1.82 -0.85,-2.94 -3.68,-3.45 l -2.55,-0.38 c -5.46,-0.85 -8.09,-3.44 -8.09,-7.86 0,-4.83 3.75,-8 9.79,-8 4.06,0 7.08,1.39 9.24,4 L 132,31.08 a 7.16,7.16 0 0 0 -6,-2.79 c -2.9,0 -4.41,1.16 -4.41,3.18 0,2.02 1.16,2.9 3.75,3.36 l 2.52,0.47 c 5.45,1 8,3.4 8,7.85 0,5.11 -3.67,8.59 -10.13,8.59 a 12.54,12.54 0 0 1 -10.07,-4.49 z"
         id="path523" />
      <path
         class="cls-4"
         d="m 139.31,41.14 c 0,-6.46 3.36,-10.52 9.32,-10.52 4.06,0 6.74,1.93 7.93,5.1 l -4.06,1.82 a 3.77,3.77 0 0 0 -3.87,-2.94 c -2.74,0 -4.13,1.93 -4.13,4.76 V 43 c 0,2.83 1.39,4.72 4.13,4.72 2.36,0 3.52,-1.35 4.26,-3.17 l 3.79,1.82 c -1.31,3.56 -4.14,5.34 -8.05,5.34 -5.96,0.03 -9.32,-4.07 -9.32,-10.57 z"
         id="path525" />
      <path
         class="cls-4"
         d="m 160.1,25.66 v -0.77 c 0,-1.43 0.85,-2.48 2.9,-2.48 2.05,0 2.9,1.05 2.9,2.48 v 0.77 c 0,1.43 -0.89,2.48 -2.9,2.48 -2.01,0 -2.9,-1.05 -2.9,-2.48 z m 0.42,5.42 h 4.95 v 20.19 h -4.95 z"
         id="path527" />
      <path
         class="cls-4"
         d="m 169.85,41.14 c 0,-6.39 3.44,-10.52 9.36,-10.52 6.31,0 9.21,4.64 9.21,10.17 v 1.62 H 175 v 0.51 c 0,2.9 1.67,4.87 4.92,4.87 A 6.15,6.15 0 0 0 185.06,45 l 2.66,3 c -1.66,2.29 -4.6,3.72 -8.35,3.72 -5.96,0.02 -9.52,-4.12 -9.52,-10.58 z M 175,39.05 v 0.31 h 8.29 V 39 c 0,-2.79 -1.44,-4.68 -4,-4.68 -2.56,0 -4.29,1.94 -4.29,4.73 z"
         id="path529" />
      <path
         class="cls-4"
         d="M 192.81,51.27 V 31.08 h 4.95 v 3.36 H 198 a 5.57,5.57 0 0 1 5.65,-3.82 c 4.14,0 6.46,2.86 6.46,7.89 v 12.76 h -4.95 V 39 c 0,-2.86 -1,-4.33 -3.33,-4.33 -2.05,0 -4,1.08 -4,3.25 v 13.35 z"
         id="path531" />
      <path
         class="cls-4"
         d="m 214.21,41.14 c 0,-6.46 3.36,-10.52 9.32,-10.52 4.06,0 6.74,1.93 7.93,5.1 l -4.06,1.82 a 3.77,3.77 0 0 0 -3.87,-2.94 c -2.74,0 -4.13,1.93 -4.13,4.76 V 43 c 0,2.83 1.39,4.72 4.13,4.72 2.36,0 3.52,-1.35 4.26,-3.17 l 3.79,1.82 c -1.31,3.56 -4.14,5.34 -8.05,5.34 -5.96,0.03 -9.32,-4.07 -9.32,-10.57 z"
         id="path533" />
      <path
         class="cls-4"
         d="m 233.88,41.14 c 0,-6.39 3.44,-10.52 9.36,-10.52 6.3,0 9.21,4.64 9.21,10.17 v 1.62 H 239 v 0.51 c 0,2.9 1.66,4.87 4.91,4.87 A 6.13,6.13 0 0 0 249.08,45 l 2.67,3 c -1.66,2.29 -4.61,3.72 -8.36,3.72 -5.95,0.02 -9.51,-4.12 -9.51,-10.58 z M 239,39.05 v 0.31 h 8.28 V 39 c 0,-2.79 -1.43,-4.68 -4,-4.68 -2.57,0 -4.28,1.94 -4.28,4.73 z"
         id="path535" />
      <path
         class="cls-5"
         d="m 115.66,57.94 h 5.76 l 6.93,13.2 h 0.15 l 6.85,-13.2 h 5.53 V 85 h -4.83 V 65.56 h -0.16 l -2.09,4.3 -5.53,10.21 -5.53,-10.21 -2.09,-4.3 h -0.16 V 85 h -4.83 z"
         id="path537" />
      <path
         class="cls-5"
         d="m 145.58,74.81 c 0,-6.38 3.44,-10.52 9.36,-10.52 6.31,0 9.21,4.64 9.21,10.17 v 1.63 h -13.42 v 0.5 c 0,2.9 1.66,4.88 4.91,4.88 a 6.13,6.13 0 0 0 5.15,-2.75 l 2.67,3 c -1.67,2.28 -4.61,3.71 -8.36,3.71 -5.96,-0.02 -9.52,-4.16 -9.52,-10.62 z m 5.15,-2.09 V 73 H 159 v -0.35 c 0,-2.78 -1.44,-4.68 -4,-4.68 -2.56,0 -4.27,1.97 -4.27,4.75 z"
         id="path539" />
      <path
         class="cls-5"
         d="m 166.79,81.7 3,-2.94 a 7.1,7.1 0 0 0 5.53,2.74 c 2.36,0 3.37,-0.89 3.37,-2.32 0,-1.16 -0.69,-1.89 -2.47,-2.13 l -2,-0.27 c -4.33,-0.54 -6.73,-2.43 -6.73,-6.11 0,-3.9 3.06,-6.38 7.66,-6.38 3.95,0 6,1.16 7.89,3.17 l -2.9,2.9 a 6.65,6.65 0 0 0 -4.83,-2.16 c -2.13,0 -3.06,0.85 -3.06,2.09 0,1.24 0.73,2 2.63,2.28 l 2.05,0.27 c 4.41,0.62 6.54,2.59 6.54,6 0,3.9 -3.29,6.61 -8.32,6.61 a 10.27,10.27 0 0 1 -8.36,-3.75 z"
         id="path541" />
      <path
         class="cls-5"
         d="m 187.85,56.32 h 5 v 11.8 H 193 a 5.56,5.56 0 0 1 5.65,-3.83 c 4.13,0 6.46,2.86 6.46,7.89 V 85 h -5 V 72.68 c 0,-2.86 -1,-4.33 -3.32,-4.33 -2.05,0 -4,1.08 -4,3.25 V 85 h -5 z"
         id="path543" />
    </g>
  </g>
</svg>
